<svg height="512" viewBox="0 0 60 60" width="512" xmlns="http://www.w3.org/2000/svg"><g id="044---Skin-Lifting"><path id="Shape" d="m57 18h-6v-4h1c.8148316-.000022 1.5481835-.4943734 1.853871-1.2496917.3056874-.7553184.1225855-1.6205709-.462871-2.1873083l-6.023-6.022c-.7810639-.72268955-1.9895599-.71305312-2.759.022l-5.975 5.978c-.598409.5610688-.7935408 1.4306552-.4922387 2.1936156.3013021.7629605 1.0379394 1.2645803 1.8582387 1.2653844h1v4h-6v-8h1c.8148316-.00002197 1.5481835-.4943734 1.853871-1.24969173.3056874-.75531833.1225855-1.6205709-.462871-2.18730827l-6.023-6.022c-.7812566-.72219165-1.9893594-.71255835-2.759.022l-5.975 5.978c-.598409.56106884-.7935408 1.43065519-.4922387 2.19361564s1.0379394 1.26458022 1.8582387 1.26538436h1v8h-6v-4h1c.8148316-.000022 1.5481835-.4943734 1.853871-1.2496917.3056874-.7553184.1225855-1.6205709-.462871-2.1873083l-6.023-6.022c-.7810639-.72268955-1.9895599-.71305312-2.759.022l-5.975 5.978c-.59840903.5610688-.79354076 1.4306552-.49223866 2.1936156.3013021.7629605 1.03793935 1.2645803 1.85823866 1.2653844h1v4h-6c-1.65685425 0-3 1.3431458-3 3v5c0 1.1045695.8954305 2 2 2h56c1.1045695 0 2-.8954305 2-2v-5c0-1.6568542-1.3431458-3-3-3zm-16.975-6.022 5.952-6 6.031 6.022c-.1.01.388 0-2.008 0-.5522847 0-1 .4477153-1 1v9h-6v-9c0-.5522847-.4477153-1-1-1zm-16-4 5.952-6 6.031 6.022c-.1.01.388 0-2.008 0-.5522847 0-1 .44771525-1 1v13h-6v-13c0-.55228475-.4477153-1-1-1zm-16 4 5.952-6 6.031 6.022c-.1.01.388 0-2.008 0-.5522847 0-1 .4477153-1 1v9h-6v-9c0-.5522847-.4477153-1-1-1zm49.975 14.022h-56v-5c0-.5522847.44771525-1 1-1h6v2c0 1.1045695.8954305 2 2 2h6c1.1045695 0 2-.8954305 2-2v-2h6v2c0 1.1045695.8954305 2 2 2h6c1.1045695 0 2-.8954305 2-2v-2h6v2c0 1.1045695.8954305 2 2 2h6c1.1045695 0 2-.8954305 2-2v-2h6c.5522847 0 1 .4477153 1 1z"/><path id="Shape" d="m58.162 47.639c-12.276-1.021-17.6-1.122-31.115 1.986-8.0683247 1.9416437-16.4940117 1.8357684-24.511-.308-.60204832-.1709166-1.24942008-.0489579-1.74800763.329308-.49858755.378266-.79041923.9688575-.78799237 1.594692v6.759c0 1.1045695.8954305 2 2 2h56c1.1045695 0 2-.8954305 2-2v-8.367c-.006347-1.0393673-.802588-1.9031892-1.838-1.994zm-.162 10.361h-56v-6.756c8.33911 2.2226899 17.1001516 2.3360947 25.494.33 13.006-2.99 18.351-2.966 30.506-1.941z"/><path id="Shape" d="m58 30h-56c-1.1045695 0-2 .8954305-2 2v13.16c-.00725019.8810191.56681175 1.661499 1.41 1.917 8.50841083 2.3997576 17.4908753 2.5719344 26.085.5 12.983-2.99 18.109-2.959 30.333-1.957.5578111.0481506 1.1102654-.1397186 1.523082-.5179437.4128165-.3782251.6481929-.9121713.648918-1.4720563v-11.63c0-1.1045695-.8954305-2-2-2zm0 13.623c-4.032-.327-8.115-.65-11.982-.623-13.467.076-19.25 4-30.874 4-4.4477769.0333165-8.8763437-.586629-13.144-1.84v-13.16h56z"/><circle id="Oval" cx="6" cy="35" r="1"/><circle id="Oval" cx="10" cy="35" r="1"/><circle id="Oval" cx="14" cy="35" r="1"/><circle id="Oval" cx="18" cy="35" r="1"/><circle id="Oval" cx="22" cy="35" r="1"/><circle id="Oval" cx="20" cy="38" r="1"/><circle id="Oval" cx="16" cy="38" r="1"/><circle id="Oval" cx="12" cy="38" r="1"/><circle id="Oval" cx="8" cy="38" r="1"/><circle id="Oval" cx="6" cy="41" r="1"/><circle id="Oval" cx="10" cy="41" r="1"/><circle id="Oval" cx="14" cy="41" r="1"/><circle id="Oval" cx="18" cy="41" r="1"/><circle id="Oval" cx="8" cy="44" r="1"/><circle id="Oval" cx="12" cy="44" r="1"/><circle id="Oval" cx="16" cy="44" r="1"/><circle id="Oval" cx="20" cy="44" r="1"/><circle id="Oval" cx="24" cy="44" r="1"/><circle id="Oval" cx="22" cy="41" r="1"/><circle id="Oval" cx="24" cy="38" r="1"/><circle id="Oval" cx="26" cy="35" r="1"/><circle id="Oval" cx="30" cy="35" r="1"/><circle id="Oval" cx="34" cy="35" r="1"/><circle id="Oval" cx="32" cy="38" r="1"/><circle id="Oval" cx="28" cy="38" r="1"/><circle id="Oval" cx="36" cy="38" r="1"/><circle id="Oval" cx="26" cy="41" r="1"/><circle id="Oval" cx="30" cy="41" r="1"/><circle id="Oval" cx="34" cy="41" r="1"/><circle id="Oval" cx="54" cy="35" r="1"/><circle id="Oval" cx="50" cy="35" r="1"/><circle id="Oval" cx="46" cy="35" r="1"/><circle id="Oval" cx="42" cy="35" r="1"/><circle id="Oval" cx="38" cy="35" r="1"/><circle id="Oval" cx="40" cy="38" r="1"/><circle id="Oval" cx="44" cy="38" r="1"/><circle id="Oval" cx="48" cy="38" r="1"/><circle id="Oval" cx="52" cy="38" r="1"/><circle id="Oval" cx="38" cy="41" r="1"/><circle id="Oval" cx="42" cy="41" r="1"/><circle id="Oval" cx="46" cy="41" r="1"/><circle id="Oval" cx="50" cy="41" r="1"/><circle id="Oval" cx="54" cy="41" r="1"/><path id="Shape" d="m55 51h-2c-.5522847 0-1 .4477153-1 1s.4477153 1 1 1h2c.5522847 0 1-.4477153 1-1s-.4477153-1-1-1z"/><path id="Shape" d="m50 52c0-.5522847-.4477153-1-1-1h-2c-.5522847 0-1 .4477153-1 1s.4477153 1 1 1h2c.5522847 0 1-.4477153 1-1z"/><path id="Shape" d="m44 52c0-.5522847-.4477153-1-1-1h-2c-.5522847 0-1 .4477153-1 1s.4477153 1 1 1h2c.5522847 0 1-.4477153 1-1z"/><path id="Shape" d="m38 52c0-.5522847-.4477153-1-1-1h-2c-.5522847 0-1 .4477153-1 1s.4477153 1 1 1h2c.5522847 0 1-.4477153 1-1z"/><path id="Shape" d="m52 54h-2c-.5522847 0-1 .4477153-1 1s.4477153 1 1 1h2c.5522847 0 1-.4477153 1-1s-.4477153-1-1-1z"/><path id="Shape" d="m46 54h-2c-.5522847 0-1 .4477153-1 1s.4477153 1 1 1h2c.5522847 0 1-.4477153 1-1s-.4477153-1-1-1z"/><path id="Shape" d="m40 54h-2c-.5522847 0-1 .4477153-1 1s.4477153 1 1 1h2c.5522847 0 1-.4477153 1-1s-.4477153-1-1-1z"/><path id="Shape" d="m34 54h-2c-.5522847 0-1 .4477153-1 1s.4477153 1 1 1h2c.5522847 0 1-.4477153 1-1s-.4477153-1-1-1z"/><path id="Shape" d="m28 54h-2c-.5522847 0-1 .4477153-1 1s.4477153 1 1 1h2c.5522847 0 1-.4477153 1-1s-.4477153-1-1-1z"/><path id="Shape" d="m22 54h-2c-.5522847 0-1 .4477153-1 1s.4477153 1 1 1h2c.5522847 0 1-.4477153 1-1s-.4477153-1-1-1z"/><path id="Shape" d="m16 54h-2c-.5522847 0-1 .4477153-1 1s.4477153 1 1 1h2c.5522847 0 1-.4477153 1-1s-.4477153-1-1-1z"/><path id="Shape" d="m10 54h-2c-.55228475 0-1 .4477153-1 1s.44771525 1 1 1h2c.5522847 0 1-.4477153 1-1s-.4477153-1-1-1z"/></g></svg>