<svg id="Capa_1" enable-background="new 0 0 512 512" height="512" viewBox="0 0 512 512" width="512" xmlns="http://www.w3.org/2000/svg"><g><g><path d="m504.5 481.297h-72.141c-4.143 0-7.5 3.357-7.5 7.5s3.357 7.5 7.5 7.5h72.141c4.143 0 7.5-3.357 7.5-7.5s-3.357-7.5-7.5-7.5z"/><path d="m504.5 366.007c4.143 0 7.5-3.357 7.5-7.5s-3.357-7.5-7.5-7.5h-62.11c-4.412 0-8.559-2.153-11.094-5.763-4.714-6.707-10.479-12.536-17.136-17.325-3.361-2.42-8.048-1.656-10.468 1.708-2.419 3.362-1.654 8.049 1.708 10.468 5.292 3.808 9.876 8.442 13.622 13.771 5.338 7.603 14.073 12.141 23.367 12.141z"/><path d="m397.359 481.297h-231.979c-19.929 0-39.252-8.267-53.016-22.68l-91.684-96.022c-3.662-3.861-5.68-8.914-5.68-14.227 0-5.51 2.15-10.693 6.056-14.6 3.896-3.899 9.075-6.045 14.589-6.045.029 0 .058.001.086.001 5.551.022 10.75 2.214 14.647 6.178l84.18 85.42c1.41 1.43 3.333 2.235 5.342 2.235l178.769.001c4.143 0 7.5-3.357 7.5-7.5s-3.357-7.5-7.5-7.5h-90.45c-.007 0-.013-.001-.019-.001-5.52 0-10.68-2.179-14.53-6.136-3.848-3.955-5.884-9.179-5.732-14.711.294-10.864 9.644-19.703 20.843-19.703h71.71c9.145 0 17.802-4.425 23.15-11.826l.67-.924c5.275-7.309 12.288-13.369 20.286-17.529 7.979-4.159 16.967-6.432 25.989-6.571l.854-.009c1.686 0 3.423.078 5.162.23 4.138.374 7.766-2.687 8.129-6.812.363-4.127-2.687-7.766-6.812-8.129-2.176-.192-4.355-.289-6.479-.289l-.97.01c-.039 0-.077 0-.116.001-11.346.175-22.65 3.034-32.685 8.265-10.058 5.231-18.883 12.857-25.511 22.041l-.668.92c-2.544 3.521-6.656 5.623-11 5.623h-26.407l151.65-152.528c20.886-20.891 32.017-48.666 31.343-78.21-.674-29.522-13.09-56.776-34.96-76.741-19.523-17.822-44.973-27.703-71.66-27.825-.166 0-.33-.001-.496-.001-26.51 0-51.853 9.643-71.41 27.183-9.07 8.142-16.684 17.75-22.499 28.317-5.817-10.574-13.433-20.184-22.503-28.318-19.556-17.54-44.896-27.182-71.407-27.182-.165 0-.333.001-.497.001-26.687.122-52.136 10.003-71.66 27.825-21.87 19.965-34.286 47.219-34.96 76.741-.674 29.544 10.457 57.319 31.328 78.195l23.05 23.181c2.921 2.939 7.67 2.952 10.606.03 2.938-2.921 2.951-7.669.03-10.606l-23.064-23.195c-17.961-17.966-27.534-41.854-26.954-67.262.58-25.389 11.261-48.829 30.077-66.006 34.474-31.471 88.693-31.717 123.436-.556 11.54 10.349 20.338 23.459 25.445 37.914 1.059 2.998 3.893 5.002 7.072 5.002s6.013-2.004 7.071-5.002c5.103-14.442 13.902-27.554 25.446-37.915 34.743-31.159 88.962-30.911 123.436.557 18.816 17.177 29.497 40.617 30.077 66.006.58 25.408-8.993 49.296-26.969 67.276l-159.061 159.981-111.331-111.98c-2.921-2.938-7.668-2.951-10.607-.03-2.937 2.92-2.951 7.669-.031 10.606l103.936 104.542h-9.237c-19.249 0-35.325 15.386-35.837 34.295-.211 7.713 2.028 15.086 6.381 21.255h-56.285l-81.97-83.178c-6.716-6.832-15.693-10.616-25.276-10.655-.05 0-.099-.001-.149-.001-9.522 0-18.467 3.706-25.196 10.44-6.738 6.737-10.448 15.687-10.448 25.204 0 9.172 3.48 17.891 9.815 24.569l91.7 96.04c16.58 17.362 39.858 27.32 63.864 27.32h231.979c4.143 0 7.5-3.357 7.5-7.5s-3.356-7.5-7.499-7.5z"/><path d="m277.704 121.747h-43.308c-4.142 0-7.5 3.357-7.5 7.5v38.514h-38.514c-4.142 0-7.5 3.357-7.5 7.5v43.308c0 4.143 3.358 7.5 7.5 7.5h38.514v38.515c0 4.143 3.358 7.5 7.5 7.5h43.308c4.143 0 7.5-3.357 7.5-7.5v-38.515h38.515c4.143 0 7.5-3.357 7.5-7.5v-43.309c0-4.143-3.357-7.5-7.5-7.5h-38.515v-38.514c0-4.142-3.357-7.499-7.5-7.499zm38.515 61.013v28.308h-38.515c-4.143 0-7.5 3.357-7.5 7.5v38.515h-28.308v-38.515c0-4.143-3.358-7.5-7.5-7.5h-38.514v-28.308h38.514c4.142 0 7.5-3.357 7.5-7.5v-38.514h28.308v38.514c0 4.143 3.357 7.5 7.5 7.5z"/></g></g></svg>